<svg width="115" height="47" viewBox="0 0 115 47" fill="none" xmlns="http://www.w3.org/2000/svg">
<path d="M6.64838 45.9545C6.49424 45.8004 6.41992 45.6187 6.41992 45.4095V26.8492C6.41992 26.64 6.49699 26.4556 6.64838 26.3042C6.80252 26.1501 6.98419 26.073 7.19338 26.073H16.7309C19.4504 26.073 21.457 26.5712 22.7479 27.5676C24.0416 28.564 24.6857 30.0779 24.6857 32.1065C24.6857 32.9295 24.4462 33.6617 23.9673 34.3031C23.4883 34.9444 22.9626 35.4096 22.3873 35.6958C23.1525 36.0014 23.7994 36.5436 24.3251 37.3198C24.8509 38.096 25.1151 38.9438 25.1151 39.8632C25.1151 41.9881 24.427 43.5736 23.0479 44.6168C21.6689 45.66 19.6568 46.183 17.0144 46.183H7.19613C6.98419 46.183 6.80252 46.1087 6.64838 45.9545ZM16.0152 33.6287C16.3978 33.6287 16.6896 33.4993 16.8905 33.2406C17.0915 32.9818 17.1933 32.6818 17.1933 32.335C17.1933 31.9909 17.0915 31.6854 16.8905 31.4157C16.6896 31.1487 16.3978 31.0138 16.0152 31.0138H13.6013V33.6287H16.0152ZM16.274 41.2422C16.7144 41.2422 17.0447 41.099 17.2649 40.81C17.4851 40.5238 17.5952 40.1962 17.5952 39.8329C17.5952 39.4696 17.4741 39.142 17.2346 38.8557C16.9951 38.5695 16.6731 38.4236 16.2712 38.4236H13.6013V41.2394H16.274V41.2422Z" fill="white"/>
<path d="M27.7363 45.9545C27.5821 45.8004 27.5078 45.6187 27.5078 45.4095V26.8492C27.5078 26.64 27.5849 26.4556 27.7363 26.3042C27.8904 26.1501 28.0721 26.073 28.2813 26.073H36.7838C39.5419 26.073 41.6971 26.6896 43.2468 27.9255C44.7992 29.1613 45.5727 30.8707 45.5727 33.0534C45.5727 34.2976 45.2947 35.3958 44.7386 36.3427C44.1826 37.2895 43.4257 38.0713 42.4706 38.6851L46.0048 45.2361C46.0626 45.3517 46.0901 45.4563 46.0901 45.5526C46.0901 45.726 46.0268 45.8747 45.903 45.9985C45.7791 46.1224 45.6305 46.1857 45.4571 46.1857H39.5694C39.2253 46.1857 38.9528 46.1031 38.7519 45.9407C38.551 45.7783 38.4106 45.6022 38.3363 45.4095L35.8645 39.9237H34.6864V45.4095C34.6864 45.6215 34.6093 45.8031 34.4552 45.9545C34.3011 46.1086 34.1194 46.1857 33.9102 46.1857H28.2813C28.0693 46.183 27.8877 46.1086 27.7363 45.9545ZM36.7838 34.4627C37.205 34.4627 37.5298 34.3251 37.761 34.0471C37.9922 33.7691 38.105 33.4195 38.105 32.9984C38.105 32.5772 37.9949 32.2084 37.7747 31.8918C37.5545 31.5753 37.2242 31.4184 36.7838 31.4184H34.6864V34.4627H36.7838Z" fill="white"/>
<path d="M50.3147 44.4901C48.6109 43.1688 47.6998 41.2448 47.5842 38.7152C47.5649 38.1978 47.5566 37.3638 47.5566 36.2159C47.5566 35.0489 47.5649 34.1956 47.5842 33.6588C47.642 32.0128 48.0769 30.5953 48.8916 29.4062C49.7064 28.2199 50.8211 27.3198 52.2387 26.706C53.6562 26.0922 55.3023 25.7866 57.1795 25.7866C59.0567 25.7866 60.7027 26.0922 62.1203 26.706C63.5378 27.3198 64.6526 28.2199 65.4673 29.4062C66.2821 30.5925 66.717 32.0101 66.7748 33.6588C66.8133 34.7323 66.8326 35.5829 66.8326 36.2159C66.8326 36.849 66.8133 37.6803 66.7748 38.7152C66.6592 41.2421 65.7509 43.1688 64.0443 44.4901C62.3377 45.8113 60.0504 46.4719 57.1795 46.4719C54.3086 46.4719 52.0185 45.8113 50.3147 44.4901ZM58.7181 40.2952C59.0925 39.9126 59.2879 39.3291 59.3072 38.5418C59.3457 37.4326 59.365 36.6178 59.365 36.1003C59.365 35.5443 59.3457 34.7489 59.3072 33.7167C59.2879 32.9322 59.087 32.3486 58.7044 31.9633C58.3218 31.5807 57.8153 31.388 57.1822 31.388C56.5491 31.388 56.0427 31.5807 55.6601 31.9633C55.2775 32.3459 55.0765 32.9294 55.0573 33.7167C55.038 34.2341 55.0298 35.0296 55.0298 36.1003C55.0298 37.1738 55.038 37.9858 55.0573 38.5418C55.0765 39.3263 55.272 39.9126 55.6463 40.2952C56.0207 40.6778 56.5326 40.8705 57.1822 40.8705C57.8318 40.8705 58.3438 40.6778 58.7181 40.2952Z" fill="white"/>
<path d="M69.6484 45.9545C69.4942 45.8004 69.4199 45.6187 69.4199 45.4095V26.8492C69.4199 26.64 69.497 26.4556 69.6484 26.3042C69.8025 26.1501 69.9842 26.073 70.1934 26.073H78.4675C80.2869 26.073 81.9054 26.3785 83.3229 26.9923C84.7405 27.6062 85.869 28.5062 86.7141 29.6926C87.5563 30.8789 88.005 32.3075 88.0628 33.9728C88.1013 35.0462 88.1206 35.7729 88.1206 36.1555C88.1206 36.5188 88.1013 37.218 88.0628 38.2529C87.9472 40.8954 87.0526 42.8772 85.3763 44.1984C83.7 45.5196 81.4457 46.1802 78.6106 46.1802H70.1934C69.9842 46.183 69.7998 46.1086 69.6484 45.9545ZM78.4675 40.5816C79.1363 40.5816 79.6786 40.3861 80.0915 39.9925C80.5043 39.5989 80.7273 39.0209 80.7658 38.2557C80.8044 37.6997 80.8236 36.9813 80.8236 36.1005C80.8236 35.2004 80.8044 34.4902 80.7658 33.9755C80.7273 33.2103 80.4823 32.635 80.0337 32.2524C79.5823 31.8698 79.0125 31.6771 78.3244 31.6771H76.6013V40.5816H78.4675Z" fill="white"/>
<path d="M100.947 45.9545C100.793 45.8004 100.719 45.6187 100.719 45.4095V26.8492C100.719 26.64 100.796 26.4556 100.947 26.3042C101.101 26.1501 101.283 26.073 101.492 26.073H107.352C107.564 26.073 107.746 26.1501 107.897 26.3042C108.051 26.4584 108.126 26.64 108.126 26.8492V45.4068C108.126 45.6187 108.049 45.8004 107.897 45.9518C107.743 46.1059 107.562 46.183 107.352 46.183H101.492C101.283 46.183 101.101 46.1087 100.947 45.9545Z" fill="white"/>
<path d="M113.701 17.7849C108.44 16.8161 103.178 16.0206 97.9589 15.3765V0.617432H72.8558V13.3121C36.4234 11.7156 6.44557 16.0921 1.55433 16.8573C1.17173 16.9179 0.912988 17.2785 0.979049 17.6638L1.84885 22.7753C1.91216 23.1524 2.26448 23.4056 2.64158 23.3478C8.21269 22.4753 47.2022 16.7995 90.6316 21.1761V45.4066C90.6316 45.6185 90.7087 45.8002 90.8628 45.9516C91.017 46.1057 91.1987 46.1828 91.4078 46.1828H97.1524C97.3616 46.1828 97.5432 46.1057 97.6974 45.9516C97.8515 45.7974 97.9258 45.6158 97.9258 45.4066V22.0046C102.762 22.6156 107.631 23.3588 112.498 24.2561C112.875 24.325 113.238 24.0772 113.307 23.7001L114.262 18.6024C114.334 18.2226 114.083 17.8565 113.701 17.7849ZM80.183 13.0066C80.183 10.1219 82.5227 7.78226 85.4073 7.78226C88.292 7.78226 90.6316 10.1219 90.6316 13.0066V14.5672C87.1139 14.2204 83.6292 13.9397 80.1858 13.714V13.0066H80.183Z" fill="#11CEA2"/>
</svg>
