<svg width="46" height="47" viewBox="0 0 46 47" fill="none" xmlns="http://www.w3.org/2000/svg">
<path d="M41.4 0H4.6C2.05949 0 0 2.10427 0 4.7V42.3C0 44.8957 2.05949 47 4.6 47H41.4C43.9405 47 46 44.8957 46 42.3V4.7C46 2.10427 43.9405 0 41.4 0Z" fill="#0087C9"/>
<path d="M14.1891 30.3978C13.3515 30.3978 12.5899 29.6675 12.5899 28.7748C12.5899 27.8822 13.2753 27.1518 14.1891 27.1518C15.103 27.1518 15.7883 27.8822 15.7883 28.7748C15.7883 29.6675 15.0268 30.3978 14.1891 30.3978ZM33.8361 21.5524C33.6837 20.254 32.9223 19.199 31.9323 18.3875L31.5516 18.0628L31.2469 18.4686C30.6377 19.199 30.4093 20.4974 30.4855 21.4712C30.5615 22.2015 30.7901 22.9319 31.1708 23.5C30.8662 23.6623 30.4855 23.8246 30.1808 23.9869C29.4954 24.2304 28.8101 24.3115 28.1247 24.3115H8.40163L8.32547 24.7984C8.17318 26.3403 8.40163 27.9633 9.01084 29.424L9.31543 29.9921V30.0732C11.1431 33.3192 14.4176 34.78 17.9966 34.78C24.8503 34.78 30.4855 31.6151 33.1507 24.7984C34.9022 24.8795 36.6537 24.3926 37.4914 22.6073L37.7198 22.2015L37.339 21.9581C36.3491 21.3089 34.9784 21.2277 33.8361 21.5524ZM24.0126 20.254H21.0427V23.4188H24.0126V20.254ZM24.0126 16.2775H21.0427V19.4425H24.0126V16.2775ZM24.0126 12.22H21.0427V15.3849H24.0126V12.22ZM27.6679 20.254H24.6979V23.4188H27.6679V20.254ZM16.6259 20.254H13.6561V23.4188H16.6259V20.254ZM20.3574 20.254H17.3874V23.4188H20.3574V20.254ZM12.9707 20.254H10.0008V23.4188H12.9707V20.254ZM20.3574 16.2775H17.3874V19.4425H20.3574V16.2775ZM16.6259 16.2775H13.6561V19.4425H16.6259V16.2775Z" fill="white"/>
</svg>
