<svg width="47" height="47" viewBox="0 0 47 47" fill="none" xmlns="http://www.w3.org/2000/svg">
<path d="M42.3 0H4.7C2.10427 0 0 2.063 0 4.60784V42.3921C0 44.937 2.10427 47 4.7 47H42.3C44.8957 47 47 44.937 47 42.3921V4.60784C47 2.063 44.8957 0 42.3 0Z" fill="#333333"/>
<path d="M18.8 38.7997C21.451 38.7997 23.6 36.6507 23.6 33.9997V29.1997H18.8C16.149 29.1997 14 31.3488 14 33.9997C14 36.6507 16.149 38.7997 18.8 38.7997Z" fill="#0ACF83"/>
<path d="M14 24.3999C14 21.7489 16.149 19.5999 18.8 19.5999H23.6V29.1999H18.8C16.149 29.1999 14 27.0508 14 24.3999Z" fill="#A259FF"/>
<path d="M14 14.8C14 12.149 16.149 10 18.8 10H23.6V19.6H18.8C16.149 19.6 14 17.4509 14 14.8Z" fill="#F24E1E"/>
<path d="M23.6001 10H28.4001C31.0511 10 33.2001 12.149 33.2001 14.8C33.2001 17.4509 31.0511 19.6 28.4001 19.6H23.6001V10Z" fill="#FF7262"/>
<path d="M33.2001 24.3999C33.2001 27.0508 31.0511 29.1999 28.4001 29.1999C25.7491 29.1999 23.6001 27.0508 23.6001 24.3999C23.6001 21.7489 25.7491 19.5999 28.4001 19.5999C31.0511 19.5999 33.2001 21.7489 33.2001 24.3999Z" fill="#1ABCFE"/>
</svg>
