<svg width="20" height="20" viewBox="0 0 20 20" fill="none" xmlns="http://www.w3.org/2000/svg">
<g clip-path="url(#clip0)">
<path d="M18.2208 4.97299C17.3698 3.51493 16.2155 2.36059 14.7576 1.5097C13.2994 0.658758 11.7076 0.233398 9.98089 0.233398C8.25441 0.233398 6.66203 0.658889 5.20419 1.5097C3.74613 2.36055 2.59188 3.51493 1.7409 4.97299C0.890047 6.431 0.4646 8.02316 0.4646 9.74942C0.4646 11.8231 1.06959 13.6877 2.27988 15.3439C3.49003 17.0002 5.05338 18.1463 6.96977 18.7823C7.19285 18.8237 7.35799 18.7946 7.46536 18.6957C7.57277 18.5967 7.62641 18.4726 7.62641 18.3241C7.62641 18.2993 7.62429 18.0764 7.62016 17.655C7.61591 17.2337 7.61391 16.8661 7.61391 16.5524L7.32891 16.6017C7.14719 16.635 6.91796 16.6491 6.6412 16.6451C6.36457 16.6412 6.07739 16.6123 5.78006 16.5584C5.4826 16.5049 5.20593 16.381 4.94982 16.1869C4.69385 15.9928 4.51214 15.7387 4.40472 15.425L4.28082 15.1398C4.19823 14.95 4.0682 14.7391 3.89057 14.508C3.71293 14.2766 3.5333 14.1198 3.35159 14.0372L3.26483 13.9751C3.20702 13.9338 3.15338 13.884 3.10378 13.8263C3.05421 13.7685 3.01711 13.7107 2.99233 13.6528C2.9675 13.5949 2.98807 13.5473 3.05426 13.51C3.12044 13.4728 3.24005 13.4547 3.41361 13.4547L3.66133 13.4917C3.82655 13.5248 4.03092 13.6237 4.2747 13.789C4.51834 13.9542 4.71863 14.1689 4.87561 14.4332C5.0657 14.7719 5.29472 15.0301 5.56332 15.2077C5.83171 15.3853 6.1023 15.474 6.37485 15.474C6.6474 15.474 6.8828 15.4534 7.08114 15.4123C7.27926 15.3709 7.46514 15.3088 7.63869 15.2263C7.71304 14.6726 7.91545 14.2472 8.24577 13.9499C7.77497 13.9004 7.35169 13.8259 6.97572 13.7268C6.59997 13.6276 6.21167 13.4666 5.81109 13.2434C5.4103 13.0204 5.07781 12.7436 4.81355 12.4133C4.54925 12.0829 4.33233 11.649 4.16312 11.1122C3.99382 10.5752 3.90914 9.9557 3.90914 9.25358C3.90914 8.25387 4.23551 7.40315 4.88811 6.70095C4.5824 5.94935 4.61126 5.10679 4.97478 4.17335C5.21435 4.09892 5.56961 4.15477 6.04041 4.34057C6.5113 4.52645 6.85607 4.68568 7.07506 4.81771C7.29406 4.94968 7.46952 5.06152 7.60172 5.15223C8.37011 4.93753 9.16306 4.83016 9.9808 4.83016C10.7985 4.83016 11.5917 4.93753 12.3601 5.15223L12.8309 4.85498C13.1529 4.65665 13.5331 4.47489 13.9707 4.30967C14.4085 4.14453 14.7433 4.09905 14.9747 4.17348C15.3463 5.10696 15.3794 5.94948 15.0736 6.70108C15.7262 7.40328 16.0527 8.25422 16.0527 9.25371C16.0527 9.95583 15.9677 10.5773 15.7987 11.1184C15.6294 11.6597 15.4106 12.0931 15.1422 12.4195C14.8735 12.7459 14.5389 13.0206 14.1384 13.2435C13.7377 13.4666 13.3493 13.6276 12.9735 13.7268C12.5976 13.826 12.1743 13.9006 11.7035 13.9501C12.1329 14.3217 12.3476 14.9083 12.3476 15.7095V18.3238C12.3476 18.4723 12.3993 18.5963 12.5027 18.6954C12.6059 18.7943 12.769 18.8234 12.992 18.7819C14.9087 18.146 16.472 16.9999 17.6822 15.3436C18.8921 13.6874 19.4973 11.8227 19.4973 9.74908C19.4969 8.02303 19.0712 6.431 18.2208 4.97299Z" fill="white"/>
</g>
<defs>
<clipPath id="clip0">
<rect width="19.0329" height="19.0329" fill="white" transform="translate(0.4646)"/>
</clipPath>
</defs>
</svg>
