<svg width="47" height="47" viewBox="0 0 47 47" fill="none" xmlns="http://www.w3.org/2000/svg">
<path d="M42.3 0H4.7C2.10427 0 0 2.10427 0 4.7V42.3C0 44.8957 2.10427 47 4.7 47H42.3C44.8957 47 47 44.8957 47 42.3V4.7C47 2.10427 44.8957 0 42.3 0Z" fill="#E535AB"/>
<path d="M11.6504 30.7487L12.736 31.3862L24.8304 10.0799L23.7448 9.44238L11.6504 30.7487Z" fill="white"/>
<path d="M35.5907 29.0454H11.4019V30.3205H35.5907V29.0454Z" fill="white"/>
<path d="M11.8804 29.7617L23.9793 36.8669L24.6061 35.7626L12.5072 28.6575L11.8804 29.7617Z" fill="white"/>
<path d="M22.3906 11.2441L34.4896 18.3493L35.1163 17.2451L23.0174 10.1399L22.3906 11.2441Z" fill="white"/>
<path d="M11.8838 17.2409L12.5106 18.3451L24.6096 11.24L23.9827 10.1357L11.8838 17.2409Z" fill="white"/>
<path d="M22.1724 10.0799L34.2668 31.3862L35.3524 30.7487L23.258 9.44238L22.1724 10.0799Z" fill="white"/>
<path d="M13.6144 16.3945H12.3608V30.605H13.6144V16.3945Z" fill="white"/>
<path d="M34.6389 16.3945H33.3853V30.605H34.6389V16.3945Z" fill="white"/>
<path d="M23.2183 35.3628L23.7657 36.3273L34.2885 30.1477L33.7411 29.1831L23.2183 35.3628Z" fill="white"/>
<path d="M36.3007 31.0197C35.5757 32.3025 33.9596 32.7404 32.6985 32.0029C31.4373 31.2655 31.0068 29.6217 31.7318 28.339C32.4568 27.0562 34.0728 26.6183 35.334 27.3558C36.6028 28.1008 37.0333 29.737 36.3007 31.0197Z" fill="white"/>
<path d="M15.2606 18.6608C14.5357 19.9436 12.9196 20.3814 11.6584 19.6441C10.3973 18.9067 9.96676 17.2629 10.6918 15.9801C11.4167 14.6973 13.0329 14.2595 14.294 14.9968C15.5552 15.742 15.9857 17.378 15.2606 18.6608Z" fill="white"/>
<path d="M10.6996 31.0197C9.97459 29.737 10.405 28.1008 11.6662 27.3558C12.9274 26.6183 14.5359 27.0562 15.2685 28.339C15.9935 29.6217 15.563 31.2579 14.3019 32.0029C13.0332 32.7404 11.4245 32.3025 10.6996 31.0197Z" fill="white"/>
<path d="M31.7392 18.6608C31.0141 17.378 31.4446 15.742 32.7058 14.9968C33.967 14.2595 35.5755 14.6973 36.308 15.9801C37.0331 17.2629 36.6025 18.8989 35.3414 19.6441C34.0802 20.3814 32.4641 19.9436 31.7392 18.6608Z" fill="white"/>
<path d="M23.4999 38.5403C22.0424 38.5403 20.8643 37.342 20.8643 35.8595C20.8643 34.377 22.0424 33.1787 23.4999 33.1787C24.9574 33.1787 26.1355 34.377 26.1355 35.8595C26.1355 37.3343 24.9574 38.5403 23.4999 38.5403Z" fill="white"/>
<path d="M23.4999 13.8215C22.0424 13.8215 20.8643 12.6232 20.8643 11.1407C20.8643 9.65827 22.0424 8.45996 23.4999 8.45996C24.9574 8.45996 26.1355 9.65827 26.1355 11.1407C26.1355 12.6232 24.9574 13.8215 23.4999 13.8215Z" fill="white"/>
</svg>
