<svg width="47" height="47" viewBox="0 0 47 47" fill="none" xmlns="http://www.w3.org/2000/svg">
<path d="M42.3 0H4.7C2.10427 0 0 2.10427 0 4.7V42.3C0 44.8957 2.10427 47 4.7 47H42.3C44.8957 47 47 44.8957 47 42.3V4.7C47 2.10427 44.8957 0 42.3 0Z" fill="#1E2E3B"/>
<path d="M10.3563 15.1257C7.7125 19.168 8.04161 24.427 10.0612 28.7221C10.1093 28.825 10.1596 28.9263 10.2091 29.0277C10.2409 29.0919 10.2707 29.1579 10.3036 29.2212C10.3222 29.2591 10.3431 29.2962 10.3624 29.3324C10.3969 29.4009 10.4322 29.4659 10.4678 29.5326C10.5305 29.6504 10.5948 29.7675 10.6606 29.8844C10.697 29.9487 10.733 30.0129 10.7706 30.0772C10.8433 30.2024 10.9181 30.3259 10.9944 30.4495C11.0262 30.5023 11.0571 30.555 11.0896 30.606C11.195 30.7733 11.3026 30.9396 11.4137 31.1036C11.4164 31.1078 11.4195 31.1127 11.4229 31.1167C11.4404 31.1431 11.4598 31.1686 11.4775 31.195C11.5736 31.3358 11.6727 31.4751 11.773 31.6127C11.8097 31.6629 11.847 31.7132 11.8841 31.7634C11.9736 31.8828 12.0646 32.0015 12.1571 32.1201C12.1916 32.1646 12.2263 32.209 12.2612 32.2527C12.3855 32.4084 12.5121 32.5633 12.6415 32.7148C12.6438 32.7172 12.6469 32.7207 12.6492 32.7231C12.6546 32.7297 12.6592 32.7338 12.6639 32.7404C12.7902 32.8869 12.9194 33.0303 13.0504 33.1736C13.091 33.2182 13.1324 33.2627 13.1742 33.3063C13.2757 33.415 13.3787 33.5221 13.4828 33.6284C13.5251 33.6712 13.5669 33.7149 13.6091 33.7561C13.748 33.8953 13.8886 34.0321 14.0319 34.1655C14.0343 34.1679 14.0361 34.1698 14.0385 34.1713C14.0628 34.1944 14.088 34.2157 14.112 34.238C14.2382 34.3542 14.3668 34.4695 14.4961 34.5832C14.5487 34.6285 14.6022 34.6729 14.6552 34.7183C14.761 34.8081 14.8678 34.897 14.9755 34.9844C15.0323 35.0305 15.0893 35.0766 15.1466 35.1227C15.2655 35.2159 15.3851 35.3073 15.5059 35.3971C15.55 35.4309 15.5926 35.4638 15.6368 35.4959C15.6492 35.505 15.6604 35.5141 15.6728 35.5231C15.7874 35.6071 15.9047 35.6879 16.0216 35.7686C16.072 35.804 16.1219 35.8411 16.1727 35.8757C16.3523 35.9967 16.5347 36.1162 16.719 36.2316C16.7689 36.2621 16.8197 36.2917 16.8699 36.3222C17.0055 36.4054 17.1418 36.487 17.28 36.5669C17.3547 36.6097 17.4314 36.65 17.5069 36.6912C17.6045 36.7456 17.7013 36.8008 17.8004 36.8536C17.8228 36.8651 17.846 36.8766 17.8681 36.8881C17.908 36.9087 17.9483 36.9285 17.9882 36.9499C18.1419 37.0281 18.2968 37.1047 18.4532 37.1789C18.4866 37.1946 18.5186 37.2102 18.5516 37.2259C18.7309 37.3091 18.9116 37.389 19.094 37.4656C19.1378 37.4845 19.1819 37.5026 19.2261 37.5208C19.3949 37.59 19.5661 37.6584 19.7379 37.7226C19.7596 37.7309 19.7806 37.7383 19.8022 37.7465C19.9907 37.8165 20.1813 37.8815 20.373 37.945C20.4186 37.959 20.4647 37.9746 20.5108 37.9886C20.7059 38.0512 20.8988 38.1262 21.1 38.1658C33.886 40.6462 37.6 29.9921 37.6 29.9921C34.4808 34.3151 28.9439 35.4553 23.6978 34.1859C23.4992 34.1381 23.3064 34.0722 23.1124 34.0113C23.0632 33.9956 23.0148 33.98 22.9664 33.9643C22.7771 33.9025 22.5893 33.8375 22.4027 33.769C22.3771 33.7592 22.3512 33.7493 22.3252 33.7394C22.158 33.6768 21.9927 33.6109 21.8281 33.5433C21.7816 33.5236 21.7352 33.5046 21.6887 33.4849C21.5083 33.4091 21.329 33.33 21.152 33.2476C21.1156 33.2311 21.0808 33.2138 21.0448 33.1973C20.8927 33.124 20.742 33.0499 20.5922 32.9733C20.5488 32.9511 20.5054 32.9296 20.4613 32.9066C20.3436 32.8455 20.2273 32.7803 20.1112 32.7169C20.0334 32.6734 19.9545 32.6322 19.8774 32.5867C19.7355 32.5061 19.5963 32.422 19.4577 32.3363C19.4108 32.3083 19.3632 32.2813 19.3159 32.2524C19.1317 32.1369 18.9496 32.0174 18.7694 31.8964C18.7196 31.8626 18.6711 31.8265 18.6219 31.7917C18.4913 31.702 18.3612 31.6105 18.233 31.5167C18.1906 31.4861 18.1497 31.4533 18.1077 31.4229C17.984 31.3298 17.8616 31.2356 17.7401 31.1401C17.6849 31.0966 17.6307 31.0528 17.5771 31.0093C17.4657 30.9185 17.3551 30.827 17.2453 30.7332C17.1958 30.6912 17.1462 30.6492 17.0974 30.6073C16.958 30.4853 16.8202 30.3626 16.6843 30.2365C16.6699 30.2234 16.6544 30.2102 16.639 30.1962C16.4919 30.0586 16.3474 29.9178 16.2045 29.776C16.1631 29.734 16.1228 29.6928 16.0822 29.6508C15.9765 29.5437 15.8723 29.4358 15.7701 29.3255C15.7291 29.2818 15.688 29.2389 15.6478 29.1953C15.5177 29.0536 15.3899 28.9103 15.2648 28.7645C15.2586 28.7571 15.252 28.7505 15.2458 28.743C15.1135 28.589 14.9841 28.4316 14.8575 28.2727C14.823 28.2291 14.7897 28.187 14.7557 28.1442C14.6612 28.0231 14.5675 27.9003 14.4761 27.7767C14.4418 27.7322 14.4076 27.6867 14.3737 27.6408C14.2636 27.4889 14.1561 27.3375 14.0508 27.1836C11.1382 22.9573 10.0919 17.1285 12.4198 12.3416" fill="#0868AC"/>
<path d="M18.3847 11.7931C16.4343 14.7413 16.5401 18.6876 18.0616 21.8055C18.3167 22.3283 18.6035 22.8352 18.9243 23.3181C19.2165 23.7578 19.5404 24.2814 19.9283 24.635C20.0689 24.7976 20.2158 24.9561 20.3659 25.112C20.4038 25.1527 20.4425 25.1917 20.4813 25.2315C20.627 25.38 20.7751 25.5261 20.9283 25.6679C20.9346 25.6729 20.9402 25.6796 20.9465 25.6846C20.9482 25.6863 20.9498 25.6869 20.9508 25.6888C21.1203 25.8448 21.2952 25.995 21.4731 26.1427C21.5125 26.1742 21.5517 26.2074 21.5915 26.2397C21.7696 26.3833 21.9513 26.5244 22.1377 26.6588C22.1433 26.663 22.1481 26.6671 22.1536 26.6712C22.2358 26.731 22.3194 26.7865 22.4028 26.8438C22.4427 26.8712 22.4807 26.9003 22.5209 26.9259C22.6541 27.0155 22.7887 27.1026 22.9257 27.1865C22.9452 27.1989 22.9641 27.2097 22.9831 27.2213C23.1011 27.2926 23.2208 27.3632 23.3409 27.4313C23.3828 27.4561 23.4254 27.4777 23.4681 27.5009C23.551 27.5466 23.634 27.593 23.7185 27.637C23.7311 27.6436 23.7442 27.6494 23.7564 27.6553C23.9283 27.7441 24.1017 27.8295 24.2786 27.9109C24.3165 27.9282 24.3557 27.944 24.3939 27.9607C24.5353 28.0237 24.6784 28.0851 24.8221 28.1432C24.8829 28.1673 24.9445 28.1905 25.0054 28.2137C25.1357 28.2643 25.2664 28.3108 25.3984 28.3573C25.458 28.3772 25.5165 28.3979 25.5761 28.417C25.7637 28.4784 25.949 28.5556 26.1445 28.5895C36.215 30.342 38.5399 22.1981 38.5399 22.1981C36.4442 25.3685 32.3855 26.8811 28.0546 25.7004C27.8622 25.6473 27.6726 25.5892 27.4842 25.527C27.4266 25.5088 27.3701 25.4889 27.3127 25.4689C27.1789 25.4232 27.0458 25.3751 26.9138 25.3245C26.8534 25.3013 26.793 25.2781 26.7337 25.254C26.5891 25.196 26.4461 25.1353 26.3044 25.0723C26.2657 25.0549 26.2266 25.0392 26.1887 25.0208C26.0109 24.9395 25.8359 24.8541 25.6633 24.7645C25.5745 24.7188 25.4871 24.6707 25.3998 24.6234C25.3493 24.596 25.2983 24.5687 25.2478 24.5412C25.1356 24.4774 25.0242 24.411 24.9144 24.3437C24.8884 24.328 24.8611 24.3131 24.8346 24.2965C24.6984 24.2127 24.5641 24.1264 24.431 24.0376C24.3899 24.0102 24.3503 23.9803 24.3092 23.9521C24.2216 23.8925 24.1339 23.8318 24.0478 23.7704C23.8622 23.636 23.6817 23.4949 23.5036 23.3522C23.4625 23.3182 23.4214 23.285 23.3811 23.251C21.4853 21.6788 19.9826 19.5306 19.2681 17.0945C18.5194 14.5679 18.6809 11.7318 19.9781 9.43018" fill="#0868AC"/>
<path d="M25.41 9.65743C24.2706 11.3652 24.1587 13.4861 24.9493 15.3724C25.783 17.3745 27.4915 18.9452 29.4852 19.6898C29.5675 19.7209 29.6496 19.7488 29.733 19.7775C29.7694 19.7887 29.8054 19.8014 29.8422 19.8125C29.9596 19.85 30.0763 19.8938 30.1976 19.917C35.7076 21.0013 37.202 17.0371 37.5999 16.4536C36.2907 18.3736 34.0906 18.8344 31.3912 18.1671C31.1781 18.1141 30.9437 18.0358 30.7381 17.9617C30.4746 17.866 30.2149 17.7569 29.9625 17.6334C29.4832 17.399 29.0263 17.1142 28.6028 16.7883C26.1871 14.9216 24.6866 11.3602 26.2628 8.45996" fill="#0868AC"/>
</svg>
