<svg width="19" height="19" viewBox="0 0 19 19" fill="none" xmlns="http://www.w3.org/2000/svg">
<g clip-path="url(#clip0)">
<path d="M17.2003 0H1.33692C0.598523 0 0 0.598523 0 1.33692V17.2003C0 17.9387 0.598523 18.5372 1.33692 18.5372H17.2003C17.9387 18.5372 18.5372 17.9387 18.5372 17.2003V1.33692C18.5372 0.598523 17.9387 0 17.2003 0V0ZM6.57526 14.0115H4.31793V7.22032H6.57526V14.0115ZM5.44667 6.29297H5.43196C4.67447 6.29297 4.18457 5.77153 4.18457 5.11983C4.18457 4.45342 4.68946 3.9464 5.46166 3.9464C6.23386 3.9464 6.70905 4.45342 6.72376 5.11983C6.72376 5.77153 6.23386 6.29297 5.44667 6.29297ZM14.7147 14.0115H12.4577V10.3784C12.4577 9.46534 12.1308 8.84263 11.3141 8.84263C10.6905 8.84263 10.3191 9.26268 10.1559 9.66815C10.0963 9.81325 10.0817 10.0161 10.0817 10.219V14.0115H7.8245C7.8245 14.0115 7.85405 7.85745 7.8245 7.22032H10.0817V8.18188C10.3817 7.71913 10.9184 7.06093 12.116 7.06093C13.6011 7.06093 14.7147 8.03155 14.7147 10.1175V14.0115Z" fill="white"/>
</g>
<defs>
<clipPath id="clip0">
<rect width="18.5372" height="18.5372" fill="white"/>
</clipPath>
</defs>
</svg>
