<svg width="47" height="47" viewBox="0 0 47 47" fill="none" xmlns="http://www.w3.org/2000/svg">
<path d="M42.3 0H4.7C2.10427 0 0 2.10427 0 4.7V42.3C0 44.8957 2.10427 47 4.7 47H42.3C44.8957 47 47 44.8957 47 42.3V4.7C47 2.10427 44.8957 0 42.3 0Z" fill="#3A3A3A"/>
<path d="M29.8398 20.492C28.2954 13.4347 25.0966 11.5837 24.3245 10.311C23.8833 9.73253 23.6627 9.03842 23.3317 8.45996C23.3317 9.03842 23.2214 9.5012 22.7802 9.96396C21.6771 10.8895 17.3752 14.5917 16.9339 22.5744C16.6031 30.0944 22.2287 34.6064 23.0008 35.0692C23.5523 35.4162 24.3245 35.0692 24.6554 34.8378C27.3027 32.871 31.0531 27.7805 29.8398 20.492Z" fill="#10AA50"/>
<path d="M23.5524 31.02C23.3318 32.8711 23.2215 33.9123 22.8906 34.9535C22.8906 34.9535 23.1111 36.689 23.3318 38.54H23.8834C24.104 37.2674 24.3246 35.9948 24.5452 34.7222C23.773 34.2594 23.5524 32.6397 23.5524 31.02Z" fill="#B8C4C2"/>
<path d="M24.6553 34.8378C23.8832 34.375 23.6626 32.6397 23.6626 31.1357C23.8832 28.4747 23.8832 25.8138 23.8832 23.0372C23.7729 21.6489 23.8832 10.1954 23.5522 8.45996C23.7729 9.03842 23.9935 9.61691 24.3245 10.0797C25.0966 11.468 28.2954 13.319 29.8397 20.3762C31.0531 27.6649 27.413 32.871 24.6553 34.8378Z" fill="#12924F"/>
</svg>
