<svg width="47" height="47" viewBox="0 0 47 47" fill="none" xmlns="http://www.w3.org/2000/svg">
<path d="M42.3 0H4.7C2.10427 0 0 2.10427 0 4.7V42.3C0 44.8957 2.10427 47 4.7 47H42.3C44.8957 47 47 44.8957 47 42.3V4.7C47 2.10427 44.8957 0 42.3 0Z" fill="black"/>
<path d="M13.5722 18.1039H20.6639V18.6645H14.2223V22.8837H20.2798V23.4442H14.2223V28.0765H20.7378V28.6371H13.5722V18.1039ZM21.2992 18.1039H22.0527L25.3918 22.7361L28.8046 18.1039L33.4467 12.22L25.8202 23.223L29.7502 28.6371H28.9671L25.3918 23.7098L21.8015 28.6371H21.0333L24.9928 23.223L21.2992 18.1039ZM30.0308 18.6645V18.1039H38.1125V18.6645H34.3893V28.6371H33.7392V18.6645H30.0308ZM4.7002 18.1039H5.51279L16.7179 34.78L12.0874 28.6371L5.37982 18.9006L5.35027 28.6371H4.7002V18.1039ZM38.047 27.9073C37.9142 27.9073 37.8145 27.805 37.8145 27.6726C37.8145 27.5404 37.9142 27.4381 38.047 27.4381C38.1814 27.4381 38.2793 27.5404 38.2793 27.6726C38.2793 27.805 38.1814 27.9073 38.047 27.9073ZM38.6857 27.2901H39.0336C39.0383 27.4774 39.1759 27.6034 39.3783 27.6034C39.6044 27.6034 39.7325 27.468 39.7325 27.2145V25.6084H40.0866V27.2161C40.0866 27.6726 39.8209 27.9356 39.3814 27.9356C38.9687 27.9356 38.6857 27.6805 38.6857 27.2901ZM40.5499 27.2696H40.9009C40.9309 27.4853 41.1428 27.6222 41.448 27.6222C41.7325 27.6222 41.9413 27.4759 41.9413 27.2744C41.9413 27.1011 41.8085 26.9971 41.5065 26.9264L41.2124 26.8555C40.7997 26.7594 40.6116 26.5611 40.6116 26.2272C40.6116 25.8226 40.9436 25.5533 41.4416 25.5533C41.9049 25.5533 42.2432 25.8226 42.2638 26.2052H41.9191C41.8859 25.9958 41.7025 25.8651 41.4369 25.8651C41.1571 25.8651 40.9705 25.999 40.9705 26.2036C40.9705 26.3657 41.0906 26.4587 41.3879 26.528L41.6393 26.5894C42.1073 26.698 42.3002 26.887 42.3002 27.2287C42.3002 27.6632 41.9618 27.9356 41.4211 27.9356C40.9151 27.9356 40.5752 27.6758 40.5499 27.2696Z" fill="white"/>
</svg>
