<svg width="47" height="47" viewBox="0 0 47 47" fill="none" xmlns="http://www.w3.org/2000/svg">
<path d="M42.3 0H4.7C2.10427 0 0 2.10427 0 4.7V42.3C0 44.8957 2.10427 47 4.7 47H42.3C44.8957 47 47 44.8957 47 42.3V4.7C47 2.10427 44.8957 0 42.3 0Z" fill="#8CC84B"/>
<path d="M22.501 8.20146C22.8744 7.99268 23.2951 7.88306 23.723 7.88306C24.1508 7.88306 24.5715 7.99268 24.945 8.20146C28.6661 10.304 32.3876 12.4061 36.1093 14.5079C36.4593 14.7072 36.7508 14.995 36.9546 15.3425C37.1583 15.6899 37.2671 16.0848 37.2702 16.4876V29.1419C37.263 29.5594 37.1432 29.9674 36.9237 30.3227C36.7043 30.678 36.393 30.9676 36.0229 31.161C32.3136 33.2522 28.6053 35.3443 24.898 37.4374C24.5174 37.6478 24.0876 37.7524 23.6529 37.7403C23.2184 37.7283 22.7949 37.6 22.4267 37.3687C21.315 36.7239 20.2024 36.0807 19.0888 35.4389C18.8444 35.3282 18.6252 35.1685 18.4449 34.9699C18.5868 34.7819 18.8406 34.7546 19.0465 34.6709C19.5033 34.5075 19.9439 34.3016 20.3625 34.0562C20.4152 34.0251 20.476 34.0104 20.5372 34.0141C20.5983 34.0177 20.657 34.0396 20.7056 34.0769C21.6568 34.6221 22.5987 35.1832 23.5528 35.7228C23.7568 35.8403 23.9627 35.6843 24.1366 35.5874C27.7762 33.5301 31.4171 31.4752 35.0594 29.4229C35.1243 29.3905 35.178 29.3393 35.2133 29.2759C35.2488 29.2124 35.2642 29.1399 35.2577 29.0676C35.2577 24.8947 35.2577 20.7211 35.2577 16.5468C35.2643 16.4656 35.2454 16.3844 35.2036 16.3144C35.1618 16.2445 35.0992 16.1893 35.0246 16.1567C31.3273 14.0749 27.6318 11.9922 23.9382 9.90851C23.8741 9.86461 23.7982 9.84121 23.7206 9.84121C23.643 9.84121 23.5671 9.86461 23.503 9.90851C19.8057 11.9916 16.1105 14.0753 12.4176 16.1595C12.3427 16.1913 12.2797 16.246 12.2377 16.3156C12.1955 16.3854 12.1767 16.4666 12.1835 16.5477C12.1835 20.7207 12.1835 24.8943 12.1835 29.0685C12.1771 29.1406 12.1929 29.213 12.2289 29.2759C12.2649 29.3387 12.3192 29.3891 12.3847 29.4201C13.371 29.9791 14.3577 30.5365 15.3447 31.0924C15.6185 31.2616 15.9248 31.3711 16.2437 31.4138C16.5626 31.4566 16.887 31.4316 17.1956 31.3405C17.463 31.2397 17.6933 31.0597 17.8558 30.8245C18.0182 30.5894 18.1049 30.3103 18.1046 30.0245C18.1093 25.8754 18.1046 21.7262 18.1046 17.578C18.1034 17.534 18.1117 17.4902 18.1286 17.4496C18.1457 17.409 18.1711 17.3724 18.2033 17.3423C18.2353 17.3122 18.2735 17.2892 18.3151 17.2749C18.3568 17.2606 18.401 17.2553 18.4449 17.2593C18.9149 17.2593 19.3933 17.2527 19.8671 17.2593C19.9129 17.2615 19.9578 17.2731 19.9988 17.2937C20.0398 17.3142 20.076 17.3432 20.1052 17.3786C20.1343 17.414 20.1557 17.4552 20.168 17.4994C20.1803 17.5437 20.1831 17.5899 20.1763 17.6353C20.1763 21.8108 20.181 25.9863 20.1763 30.1608C20.2078 30.728 20.0867 31.2932 19.8254 31.7976C19.5642 32.302 19.1725 32.7272 18.6911 33.0288C18.0478 33.3286 17.3435 33.4746 16.6339 33.4551C15.9243 33.4357 15.2291 33.2514 14.6031 32.9169C13.5183 32.3755 12.4834 31.7372 11.4184 31.1572C11.0487 30.9643 10.7379 30.6754 10.5187 30.3207C10.2995 29.966 10.18 29.5587 10.1729 29.1419V16.4876C10.176 16.0763 10.2893 15.6735 10.5009 15.3209C10.7125 14.9683 11.0147 14.6788 11.3761 14.4826C15.086 12.3901 18.7943 10.2965 22.501 8.20146Z" fill="#E6E6E6"/>
<path d="M25.7354 16.9652C27.3741 16.7531 29.0394 17.0079 30.5398 17.7003C31.0835 18.0246 31.533 18.4853 31.8437 19.0369C32.1546 19.5884 32.3159 20.2115 32.3117 20.8446C32.2905 20.9237 32.2416 20.9926 32.1737 21.0386C32.1058 21.0845 32.0237 21.1044 31.9423 21.0946C31.4723 21.0946 31.0023 21.1012 30.5323 21.0946C30.4421 21.0888 30.3573 21.0495 30.2945 20.9846C30.2317 20.9195 30.1956 20.8334 30.1929 20.7431C30.1397 20.4364 30.0205 20.1451 29.8434 19.8894C29.6663 19.6335 29.4356 19.4193 29.1674 19.2616C28.2748 18.9072 27.311 18.7694 26.3549 18.8593C25.6504 18.8372 24.9535 19.0107 24.3414 19.3603C24.1307 19.5237 23.9764 19.7491 23.9004 20.0047C23.8243 20.2603 23.8303 20.5334 23.9175 20.7854C24.0679 21.1435 24.4815 21.2554 24.8199 21.3654C26.7694 21.8748 28.8346 21.8241 30.7466 22.4934C31.1572 22.6073 31.5362 22.8138 31.8546 23.097C32.1729 23.3801 32.4222 23.7326 32.5833 24.1271C32.7751 24.6868 32.8214 25.2861 32.7179 25.8686C32.6145 26.4512 32.3648 26.9979 31.9921 27.4575C31.3179 28.1572 30.4422 28.6291 29.487 28.8073C28.2428 29.06 26.9665 29.1142 25.7054 28.9681C24.495 28.8991 23.3345 28.4626 22.3787 27.7169C21.9995 27.3694 21.7017 26.9425 21.5067 26.4665C21.3117 25.9905 21.2243 25.4773 21.2507 24.9637C21.2593 24.8806 21.3003 24.8043 21.365 24.7514C21.4297 24.6986 21.5126 24.6735 21.5957 24.6817C22.0657 24.6817 22.5404 24.677 23.0132 24.6817C23.057 24.6806 23.1005 24.6883 23.1412 24.7043C23.182 24.7202 23.2192 24.7441 23.2507 24.7745C23.2822 24.805 23.3073 24.8414 23.3246 24.8815C23.3419 24.9218 23.3511 24.965 23.3516 25.0088C23.3752 25.3007 23.4583 25.5847 23.5956 25.8433C23.7331 26.102 23.9219 26.3298 24.1506 26.5128C25.1626 27.0107 26.2935 27.2165 27.4162 27.1069C28.3558 27.1775 29.2934 26.947 30.0933 26.4489C30.2771 26.2691 30.411 26.0445 30.4815 25.7973C30.5521 25.55 30.5569 25.2885 30.4956 25.0389C30.3809 24.6215 29.9438 24.4269 29.5688 24.3C27.6446 23.6909 25.5559 23.9118 23.6468 23.2237C23.247 23.1068 22.8774 22.9045 22.5634 22.6309C22.2494 22.3573 21.9984 22.0188 21.8279 21.6389C21.6088 21.0717 21.5536 20.4543 21.6682 19.8572C21.7829 19.2601 22.063 18.7072 22.4765 18.2615C23.3774 17.4662 24.5244 17.0052 25.7251 16.9558L25.7354 16.9652Z" fill="#E6E6E6"/>
</svg>
