<svg width="34" height="35" viewBox="0 0 34 35" fill="none" xmlns="http://www.w3.org/2000/svg">
<path d="M25.1626 25.3277C25.3765 23.5472 25.3123 23.2873 26.6375 23.5747L26.9748 23.6049C27.9944 23.6508 29.3275 23.4409 30.124 23.0774C31.8102 22.2953 32.81 20.9884 31.1474 21.3322C27.3553 22.1142 27.0797 20.8296 27.0797 20.8296C31.0858 14.8855 32.7614 7.34054 31.3141 5.49432C27.3724 0.455595 20.5478 2.83849 20.4336 2.90148L20.3968 2.90803C19.6489 2.75058 18.8223 2.65873 17.8644 2.64561C16.1481 2.61936 14.8464 3.09568 13.857 3.84492C13.857 3.84492 1.68403 -1.17018 2.24958 10.1525C2.37029 12.5617 5.70058 28.3916 9.67645 23.6022C11.1317 21.8518 12.5357 20.373 12.5357 20.373C13.2311 20.8362 14.067 21.0723 14.9422 20.9871L15.0104 20.9294C14.9902 21.1562 14.9994 21.3846 15.038 21.609C14.0145 22.7533 14.3162 22.954 12.2693 23.3752C10.1987 23.8017 11.4164 24.5614 12.209 24.7609C13.1721 25.0023 15.4002 25.3434 16.9065 23.2362L16.8461 23.4763C17.2477 23.7978 17.2201 25.7857 17.2791 27.2055C17.3382 28.6252 17.4314 29.9519 17.7213 30.7326C18.0113 31.5133 18.3512 33.5275 21.0412 32.9633C23.2889 32.4816 25.0079 31.7876 25.1653 25.3395" fill="black"/>
<path d="M25.1626 25.3277C25.3765 23.5472 25.3123 23.2873 26.6375 23.5747L26.9748 23.6049C27.9944 23.6508 29.3275 23.4409 30.124 23.0774C31.8102 22.2953 32.81 20.9884 31.1474 21.3322C27.3553 22.1142 27.0797 20.8296 27.0797 20.8296C31.0858 14.8855 32.7614 7.34054 31.3141 5.49432C27.3724 0.455595 20.5478 2.83849 20.4336 2.90148L20.3968 2.90803C19.6489 2.75058 18.8223 2.65873 17.8644 2.64561C16.1481 2.61936 14.8464 3.09568 13.857 3.84492C13.857 3.84492 1.68403 -1.17018 2.24958 10.1525C2.37029 12.5617 5.70058 28.3916 9.67645 23.6022C11.1317 21.8518 12.5357 20.373 12.5357 20.373C13.2311 20.8362 14.067 21.0723 14.9422 20.9871L15.0104 20.9294C14.9902 21.1562 14.9994 21.3846 15.038 21.609C14.0145 22.7533 14.3162 22.954 12.2693 23.3752C10.1987 23.8017 11.4164 24.5614 12.209 24.7609C13.1721 25.0023 15.4002 25.3434 16.9065 23.2362L16.8461 23.4763C17.2477 23.7978 17.2201 25.7857 17.2791 27.2055C17.3382 28.6252 17.4314 29.9519 17.7213 30.7326C18.0113 31.5133 18.3512 33.5275 21.0412 32.9633C23.2889 32.4816 25.0079 31.7876 25.1653 25.3395" stroke="black" stroke-width="2.81984"/>
<path d="M31.1356 21.3447C27.3435 22.1267 27.0679 20.8421 27.0679 20.8421C31.074 14.8979 32.7497 7.35298 31.3036 5.50676C27.3618 0.468032 20.5373 2.85224 20.4231 2.91391L20.3864 2.92047C19.5528 2.75322 18.7054 2.66492 17.8552 2.65673C16.1389 2.63048 14.8372 3.1068 13.8478 3.85605C13.8478 3.85605 1.67353 -1.15906 2.24039 10.1636C2.3611 12.5727 5.69139 28.4028 9.66726 23.6134C11.1317 21.8524 12.5357 20.3737 12.5357 20.3737C13.2312 20.8368 14.0669 21.073 14.9422 20.9877L15.0104 20.93C14.9904 21.1568 14.9996 21.3852 15.0379 21.6097C14.0145 22.7539 14.3163 22.9547 12.2692 23.3759C10.1987 23.8023 11.4163 24.5621 12.2089 24.7615C13.1721 25.003 15.4001 25.3441 16.9065 23.2367L16.8461 23.4769C17.2476 23.7984 17.5285 25.5672 17.4812 27.1706C17.434 28.7741 17.4025 29.8738 17.7175 30.7345C18.0324 31.5953 18.3473 33.5294 21.0372 32.9652C23.285 32.4836 24.4489 31.2331 24.6128 29.152C24.7283 27.6719 24.9882 27.8897 25.0065 26.5671L25.2165 25.9399C25.4566 23.9322 25.2558 23.2853 26.6401 23.5872L26.9773 23.6173C27.9969 23.6632 29.3315 23.4532 30.1135 23.0898C31.7996 22.3078 32.7995 21.0008 31.1369 21.3447H31.1356Z" fill="#336791"/>
<path d="M20.4217 2.85149C20.0018 2.98271 27.1978 0.220591 31.2891 5.44696C32.7325 7.29318 31.0595 14.8381 27.0535 20.7823L20.4217 2.85149ZM17.0678 22.4815C16.9629 26.216 17.0941 29.9766 17.4589 30.8794C17.8236 31.7822 18.607 33.5694 21.2983 32.9946C23.546 32.5131 24.3648 31.5801 24.7191 29.5213L25.5496 22.9382L17.0678 22.4815ZM13.8425 3.76083C13.8425 3.76083 1.66033 -1.22017 2.22719 10.1025C2.34792 12.5116 5.67819 28.3417 9.65407 23.5523C11.1053 21.8031 12.4175 20.4346 12.4175 20.4346L13.8425 3.76083Z" stroke="white" stroke-width="0.939512" stroke-linecap="round" stroke-linejoin="round"/>
<path d="M27.0549 20.7803C27.0549 20.7803 27.3174 22.0662 31.1226 21.2816C32.7851 20.9377 31.784 22.2447 30.0992 23.0267C28.7161 23.6697 25.6142 23.8337 25.5629 22.9479C25.4318 20.6583 27.1954 21.3537 27.068 20.7803C26.9525 20.2633 26.1626 19.7567 25.643 18.4918C25.1877 17.3896 19.3972 8.92615 27.2491 10.1819C27.5378 10.1228 25.2021 2.70253 17.854 2.59494C10.5058 2.48734 10.7381 11.6292 10.7381 11.6292" stroke="white" stroke-width="0.939512" stroke-linecap="round" stroke-linejoin="bevel"/>
<path d="M15.0123 21.5646C13.9888 22.7089 14.2906 22.9096 12.2436 23.3309C10.173 23.7573 11.3907 24.517 12.1833 24.7165C13.1464 24.9579 15.3745 25.2991 16.8808 23.1904C17.3401 22.5474 16.8782 21.524 16.2484 21.2641C15.9439 21.1382 15.5371 20.9808 15.0149 21.5659L15.0123 21.5646Z" stroke="white" stroke-width="0.939512" stroke-linejoin="round"/>
<path d="M14.9457 21.5446C14.8407 20.8715 15.1661 20.0723 15.5138 19.1355C16.0361 17.7314 17.2406 16.3274 16.2775 11.8701C15.5597 8.55023 10.7401 11.1785 10.7401 11.6285C10.7401 12.0786 10.958 13.9118 10.6614 16.0441C10.2717 18.8285 12.4329 21.1825 14.9207 20.9424" stroke="white" stroke-width="0.939512" stroke-linecap="round" stroke-linejoin="round"/>
<path d="M13.7975 11.5629C13.7752 11.7164 14.0797 12.1271 14.4747 12.1823C14.8697 12.2374 15.2069 11.9172 15.2292 11.7624C15.2514 11.6075 14.947 11.4396 14.552 11.3844C14.1571 11.3294 13.8173 11.4108 13.7975 11.5629Z" fill="white" stroke="white" stroke-width="0.313608"/>
<path d="M25.8226 11.2492C25.8436 11.4028 25.5404 11.8135 25.1456 11.8685C24.7506 11.9237 24.4107 11.6035 24.3911 11.4486C24.3713 11.2939 24.6731 11.1259 25.0681 11.0708C25.4631 11.0156 25.8029 11.097 25.8226 11.2492Z" fill="white" stroke="white" stroke-width="0.156149"/>
<path d="M27.2353 10.1846C27.301 11.3918 26.9756 12.2119 26.9335 13.4965C26.8732 15.3624 27.8231 17.4986 26.3916 19.6374" stroke="white" stroke-width="0.939512" stroke-linecap="round" stroke-linejoin="round"/>
</svg>
