<svg width="47" height="47" viewBox="0 0 47 47" fill="none" xmlns="http://www.w3.org/2000/svg">
<path d="M42.3 0H4.7C2.10426 0 0 2.10426 0 4.7V42.3C0 44.8957 2.10426 47 4.7 47H42.3C44.8957 47 47 44.8957 47 42.3V4.7C47 2.10426 44.8957 0 42.3 0Z" fill="#8C6AD7"/>
<path d="M24.5032 35.4342C24.208 35.1776 23.8988 34.921 23.6036 34.6362C23.3677 34.8496 23.1468 35.0488 22.9108 35.2491C19.9912 37.7137 16.9832 38.7393 15.2029 37.7419C13.478 36.7878 12.929 33.9669 13.6218 30.4203C13.6957 30.0355 13.7841 29.6507 13.8868 29.266C13.5776 29.1804 13.2824 29.0949 12.9873 28.9952C9.31657 27.7714 6.89795 25.7776 6.89795 23.7829C6.89795 21.8606 9.15395 19.9938 12.678 18.8009C13.0766 18.6731 13.4892 18.5443 13.9169 18.4306C13.8135 18.0602 13.7402 17.704 13.6659 17.3618C12.929 13.755 13.445 10.8786 15.185 9.90949C16.9982 8.88395 20.0072 9.98093 23.0293 12.5584C23.206 12.7154 23.3837 12.8865 23.5745 13.0566C23.8565 12.8009 24.1197 12.5443 24.4007 12.3159C27.2612 9.90949 30.1075 8.89805 31.8465 9.86719C33.6598 10.8636 34.1908 13.9411 33.3796 17.7434C33.3354 17.986 33.2762 18.2134 33.218 18.456C33.5864 18.5556 33.9549 18.6693 34.2943 18.784C37.8926 19.9806 40.2219 21.8465 40.1927 23.8121C40.1927 25.8209 37.7008 27.8005 33.8816 29.0253C33.6748 29.0827 33.4689 29.1532 33.2621 29.2133C33.3505 29.4953 33.4097 29.783 33.4689 30.0678C34.236 33.7573 33.6457 36.7766 31.8615 37.7758C31.3851 38.0333 30.8501 38.1629 30.3086 38.1518C28.6712 38.1452 26.5947 37.1704 24.5032 35.4342ZM27.39 30.2069C26.5371 31.4065 25.606 32.5486 24.6029 33.6257C24.8849 33.8964 25.1668 34.1389 25.4432 34.3664C27.8759 36.3893 30.1169 37.1441 31.164 36.5594C31.476 36.3226 31.7345 36.0227 31.9226 35.6791C32.1106 35.3355 32.2241 34.9561 32.2554 34.5657C32.4687 33.1524 32.4086 31.7113 32.0787 30.3206C32.0345 30.064 31.9753 29.8083 31.9019 29.5376C30.4132 29.8533 28.9063 30.0768 27.39 30.2069ZM15.0336 30.6628C14.4292 33.6962 14.872 35.9616 15.9182 36.5453C16.2926 36.6868 16.6915 36.752 17.0915 36.7374C17.4915 36.7227 17.8845 36.6283 18.2475 36.4598C19.6177 35.9428 20.882 35.1802 21.9784 34.2094C22.1993 34.0383 22.4061 33.8391 22.627 33.6398C21.6018 32.5622 20.6464 31.4203 19.7665 30.221C18.2559 30.1063 16.7539 29.8969 15.2696 29.594C15.185 29.9644 15.1117 30.3206 15.0374 30.6628H15.0336ZM23.6149 32.6565C24.2635 31.9581 24.9121 31.1892 25.5617 30.3347C24.9131 30.3629 24.2344 30.377 23.5566 30.377C22.8789 30.377 22.2406 30.3629 21.6099 30.3347C22.2396 31.1424 22.91 31.9173 23.6187 32.6565H23.6149ZM20.5223 18.7549C19.9583 19.5379 19.4169 20.3642 18.9008 21.2337C18.3848 22.0881 17.9129 22.9576 17.4852 23.8262C17.9279 24.6806 18.3998 25.5501 18.9158 26.4328C19.4319 27.2873 19.9781 28.1248 20.5383 28.9247C21.5112 28.9821 22.5292 29.0103 23.5613 29.0103C24.6085 29.0103 25.6293 28.9821 26.6135 28.9106C27.1446 28.1276 27.6898 27.2873 28.2059 26.4178C28.7219 25.5483 29.2079 24.6656 29.6356 23.8111C29.2079 22.9708 28.721 22.1022 28.2059 21.2327C27.6908 20.3632 27.1446 19.5407 26.5985 18.7539C25.6105 18.6825 24.5925 18.6393 23.5613 18.6393C22.5302 18.6393 21.5103 18.6834 20.5223 18.7549ZM15.6569 28.2837C16.6706 28.4929 17.6943 28.6498 18.7241 28.7537C18.3697 28.2122 18.0163 27.6708 17.6769 27.1011C17.3526 26.5456 17.0283 25.9901 16.7369 25.4345C16.3261 26.3642 15.9656 27.3153 15.6569 28.2837ZM29.4429 27.087C29.1036 27.6567 28.7642 28.1981 28.4258 28.7255C29.4709 28.6071 30.5093 28.4361 31.5372 28.2132C31.2157 27.2484 30.8416 26.302 30.4168 25.3781C30.1072 25.949 29.7825 26.5186 29.4429 27.087ZM13.1348 20.1085C10.1268 21.134 8.31359 22.6296 8.31359 23.797C8.37668 24.1835 8.51929 24.5526 8.73238 24.8811C8.94548 25.2095 9.22442 25.4902 9.55157 25.7052C10.7228 26.5919 12.0401 27.2667 13.4441 27.699C13.7092 27.7845 13.9893 27.856 14.2694 27.9415C14.7249 26.5349 15.2718 25.1595 15.9069 23.8243C15.2707 22.5114 14.7285 21.1551 14.2845 19.7654C13.8871 19.8657 13.504 19.98 13.1348 20.1085ZM31.227 23.797C31.88 25.1149 32.4416 26.4761 32.9077 27.871C33.0957 27.8146 33.2913 27.7573 33.4718 27.6999C36.7618 26.6462 38.795 25.0369 38.81 23.7829C38.81 22.6155 36.9225 21.1049 33.8402 20.0793C33.531 19.9797 33.1916 19.8801 32.8523 19.7804C32.4015 21.1543 31.8585 22.4963 31.227 23.797ZM29.4279 20.5211C29.7672 21.0908 30.0915 21.6491 30.3857 22.2019C30.794 21.2977 31.1484 20.3702 31.447 19.4242C30.4882 19.2108 29.473 19.0397 28.4098 18.9119C28.7652 19.4383 29.1045 19.9656 29.4288 20.5211H29.4279ZM15.671 19.4101C15.9661 20.3209 16.3196 21.2478 16.7332 22.2019C17.0283 21.6463 17.3526 21.0908 17.6732 20.5352C17.9937 19.9797 18.3368 19.4383 18.6902 18.9119C17.6327 19.0397 16.6298 19.2108 15.671 19.4101ZM25.3295 13.3565C25.0785 13.5698 24.8275 13.7983 24.5775 14.0257C25.5961 15.0879 26.5384 16.2206 27.3975 17.4154C28.8951 17.5459 30.3824 17.7742 31.8502 18.0988C31.9095 17.8854 31.9537 17.6711 31.9978 17.4577C32.6906 14.1818 32.2639 11.6748 31.1424 11.0488C30.8923 10.9232 30.6147 10.8621 30.335 10.8711C29.1271 10.872 27.279 11.7218 25.3295 13.3565ZM15.8928 11.092C14.8456 11.6757 14.433 14.0145 15.0525 17.0883C15.1258 17.4163 15.2 17.7463 15.2884 18.0847C16.7578 17.772 18.2448 17.5485 19.7412 17.4154C20.6023 16.219 21.5485 15.0862 22.5725 14.0257C22.4108 13.8688 22.2331 13.7268 22.0714 13.5839C20.0166 11.8252 18.0463 10.8965 16.7585 10.8965C16.458 10.8866 16.16 10.954 15.8928 11.092ZM25.5363 17.3045C24.926 16.5042 24.2714 15.7388 23.5754 15.0118C22.9118 15.7093 22.2481 16.4791 21.6014 17.3045C22.25 17.2763 22.8986 17.2622 23.5623 17.2622C24.2259 17.2622 24.8867 17.2734 25.5363 17.3045ZM20.6097 23.8572C20.5891 23.2636 20.7463 22.6774 21.0611 22.1738C21.376 21.6701 21.8341 21.272 22.3767 21.0305C22.9194 20.789 23.5218 20.7152 24.1067 20.8185C24.6916 20.9217 25.2324 21.1973 25.6595 21.6099C26.0867 22.0225 26.381 22.5534 26.5044 23.1343C26.6278 23.7154 26.5748 24.32 26.3523 24.8706C26.1298 25.4213 25.7478 25.893 25.2554 26.2251C24.7629 26.5572 24.1826 26.7345 23.5886 26.7345C23.2036 26.7422 22.8209 26.6735 22.4625 26.5327C22.104 26.3919 21.777 26.1816 21.5002 25.9139C21.2234 25.6463 21.0022 25.3265 20.8493 24.9731C20.6966 24.6196 20.6151 24.2394 20.6097 23.8544V23.8572Z" fill="#E6E6E6"/>
</svg>
