<svg width="47" height="47" viewBox="0 0 47 47" fill="none" xmlns="http://www.w3.org/2000/svg">
<path d="M42.3 0H4.7C2.10427 0 0 2.063 0 4.60784V42.3921C0 44.937 2.10427 47 4.7 47H42.3C44.8957 47 47 44.937 47 42.3921V4.60784C47 2.063 44.8957 0 42.3 0Z" fill="#3BC0DD"/>
<path d="M24.4154 34.9182C24.1334 34.6536 23.8392 34.3882 23.5581 34.0943C23.3334 34.3145 23.1229 34.5209 22.9001 34.7264C20.1186 37.2699 17.2516 38.3289 15.5521 37.2995C13.9081 36.3143 13.3901 33.404 14.0481 29.7426C14.1183 29.3457 14.2026 28.9488 14.301 28.5519C14.0058 28.4598 13.7248 28.375 13.4437 28.2755C9.94408 27.0083 7.64014 24.9504 7.64014 22.8917C7.64014 20.9076 9.78992 18.9814 13.1476 17.7465C13.5236 17.6138 13.9203 17.4821 14.3282 17.3641C14.2342 16.9816 14.16 16.6139 14.0895 16.2582C13.3864 12.5416 13.878 9.57219 15.5361 8.57233C17.2639 7.51345 20.1309 8.64606 23.0101 11.3066C23.1783 11.4679 23.3475 11.6448 23.5299 11.8209C23.7969 11.5563 24.0497 11.2919 24.3167 11.0569C27.0427 8.56865 29.7536 7.5282 31.4118 8.52809C33.1395 9.55659 33.6462 12.7323 32.8735 16.6582C32.8312 16.9088 32.7795 17.1438 32.7193 17.3954C33.0709 17.4986 33.4215 17.6157 33.7449 17.7336C37.1731 18.9685 39.3933 20.8946 39.3651 22.923C39.3651 24.9956 36.9907 27.0396 33.3491 28.304C33.1527 28.363 32.9562 28.4368 32.7588 28.4948C32.8434 28.7888 32.8989 29.0827 32.9553 29.3768C33.6857 33.1847 33.1235 36.3014 31.424 37.3308C30.9777 37.5942 30.4644 37.7284 29.9435 37.7179C28.3859 37.7151 26.4082 36.7097 24.4154 34.9182ZM27.1696 29.5224C26.3625 30.7532 25.4755 31.9319 24.5141 33.051C24.781 33.3275 25.048 33.5809 25.315 33.8159C27.633 35.9033 29.7687 36.6829 30.767 36.0802C31.0718 35.8228 31.3209 35.5081 31.4995 35.1546C31.6781 34.8011 31.7825 34.4161 31.8066 34.0223C32.0095 32.5634 31.9522 31.081 31.6374 29.6412C31.5951 29.3768 31.5434 29.1123 31.4691 28.833C30.0535 29.1578 28.617 29.3881 27.1696 29.5224ZM15.3951 29.9933C14.8199 33.1266 15.241 35.4619 16.2411 36.0655C16.5955 36.2107 16.978 36.2777 17.3617 36.2617C17.7454 36.2458 18.1209 36.1474 18.4614 35.9733C19.7863 35.4275 20.9928 34.639 22.0165 33.65C22.2271 33.4731 22.4235 33.2676 22.635 33.0621C21.6524 31.9426 20.742 30.764 19.909 29.5334C18.4671 29.4153 17.0352 29.1998 15.6236 28.8883C15.5361 29.2726 15.4656 29.6394 15.3951 29.9933ZM23.5731 32.0512C24.1917 31.3305 24.8092 30.537 25.4278 29.655C24.8092 29.6845 24.1635 29.6993 23.5167 29.6993C22.87 29.6993 22.2665 29.6845 21.6621 29.655C22.2938 30.5213 22.9264 31.3305 23.5722 32.0512H23.5731ZM20.6215 17.7023C20.0876 18.5106 19.5678 19.3612 19.0762 20.2606C18.5846 21.1426 18.1362 22.0392 17.7273 22.9332C18.1493 23.8151 18.5987 24.7117 19.0903 25.6241C19.5819 26.506 20.1017 27.3751 20.6356 28.1962C21.5625 28.2552 22.5326 28.2883 23.5158 28.2883C24.499 28.2883 25.4823 28.2589 26.4242 28.1861C26.9299 27.3779 27.4497 26.5098 27.9423 25.6131C28.4348 24.7163 28.8973 23.8049 29.3053 22.923C28.8973 22.0558 28.4339 21.1591 27.9423 20.2615C27.4506 19.3639 26.9308 18.5106 26.411 17.7032C25.471 17.6295 24.5 17.5853 23.5167 17.5853C22.5335 17.5853 21.5634 17.6286 20.6215 17.7023ZM15.9855 27.5373C16.9494 27.7532 17.9251 27.9154 18.9079 28.023C18.5705 27.4645 18.2339 26.9051 17.9106 26.3172C17.6013 25.744 17.2921 25.1707 17.011 24.5975C16.604 25.5965 16.2665 26.5835 15.9855 27.5373ZM29.122 26.3024C28.7986 26.8904 28.4752 27.4488 28.1528 27.9935C29.1503 27.871 30.1401 27.6944 31.1176 27.4645C30.8124 26.4721 30.4559 25.4955 30.0497 24.5385C29.7546 25.1265 29.4453 25.7144 29.122 26.3024ZM13.5828 19.0985C10.7168 20.1573 8.98904 21.6991 8.98904 22.9064C9.04368 23.2948 9.17601 23.6688 9.37846 24.0069C9.58086 24.345 9.84951 24.6406 10.1687 24.8767C11.2653 25.7808 12.5229 26.4785 13.878 26.9346C14.1308 27.0268 14.3978 27.0968 14.6648 27.1853C15.0963 25.7392 15.6172 24.3201 16.2242 22.9359C15.6159 21.5754 15.0997 20.1771 14.6789 18.7502C14.2998 18.8497 13.9344 18.9658 13.5828 19.0985ZM30.8224 22.9064C31.4459 24.273 31.9797 25.6773 32.4204 27.1106C32.6037 27.0516 32.7861 26.9926 32.9543 26.9337C36.0874 25.8462 38.0303 24.1846 38.0407 22.8908C38.0407 21.6853 36.2425 20.126 33.3059 19.0681C33.0107 18.9658 32.6883 18.8626 32.3659 18.7594C31.9403 20.1719 31.4248 21.557 30.8224 22.9064ZM29.1088 19.5252C29.4322 20.1132 29.7414 20.6873 30.0215 21.2605C30.4119 20.3236 30.7496 19.3665 31.033 18.3935C30.0787 18.1661 29.1125 17.9896 28.1387 17.8645C28.4762 18.4073 28.7986 18.952 29.1079 19.5252H29.1088ZM15.9996 18.3815C16.2816 19.3224 16.6181 20.2781 17.011 21.2623C17.293 20.6891 17.6013 20.1159 17.9106 19.5427C18.2198 18.9695 18.5423 18.411 18.8797 17.8664C17.8683 17.9963 16.9132 18.1723 15.9996 18.3815ZM25.2022 12.1333C24.9634 12.3536 24.7246 12.5886 24.4849 12.8244C25.4606 13.9298 26.3573 15.1 27.1686 16.3264C28.5985 16.4617 30.0165 16.6977 31.4118 17.0323C31.4682 16.8121 31.5058 16.5909 31.5528 16.3706C32.2108 12.9894 31.8057 10.4016 30.7378 9.75558C30.5035 9.62662 30.2376 9.56288 29.9689 9.57134C28.8212 9.5658 27.0596 10.4422 25.2022 12.1305V12.1333ZM16.2101 9.79253C15.2128 10.3952 14.8189 12.806 15.4092 15.9818C15.4797 16.32 15.5502 16.6573 15.6339 17.0102C17.0311 16.6878 18.4486 16.4569 19.8771 16.319C20.6913 15.091 21.5928 13.9208 22.5749 12.8171C22.4207 12.6549 22.2515 12.5084 22.0973 12.3609C20.1421 10.5482 18.2621 9.59155 17.0345 9.59155C16.746 9.58197 16.4604 9.65153 16.2101 9.79253ZM25.3986 16.202C24.8192 15.3801 24.1941 14.59 23.5261 13.8354C22.8945 14.5551 22.2618 15.3495 21.6461 16.202C22.2647 16.1725 22.8822 16.1577 23.5149 16.1577C24.1475 16.1577 24.781 16.1698 25.3996 16.202H25.3986ZM20.7061 22.9654C20.693 22.5875 20.756 22.2109 20.8916 21.857C21.0271 21.503 21.2326 21.1787 21.4963 20.9029C21.7599 20.6269 22.0765 20.4048 22.4278 20.249C22.7793 20.0932 23.1586 20.0069 23.544 19.9952C24.3217 20.0211 25.0572 20.3484 25.5892 20.9052C26.1211 21.462 26.4062 22.2029 26.3819 22.9654C26.407 23.7285 26.1221 24.4702 25.5898 25.0277C25.0576 25.5851 24.3215 25.9127 23.5431 25.9383C23.1574 25.9266 22.7779 25.8403 22.4264 25.6844C22.0749 25.5284 21.7582 25.3059 21.4946 25.0296C21.231 24.7535 21.0257 24.4289 20.8904 24.0746C20.7551 23.7204 20.6924 23.3434 20.7061 22.9654Z" fill="#E6E6E6"/>
</svg>
