<svg width="46" height="47" viewBox="0 0 46 47" fill="none" xmlns="http://www.w3.org/2000/svg">
<path d="M41.4 0H4.6C2.05949 0 0 2.10427 0 4.7V42.3C0 44.8957 2.05949 47 4.6 47H41.4C43.9405 47 46 44.8957 46 42.3V4.7C46 2.10427 43.9405 0 41.4 0Z" fill="#CF649A"/>
<g clip-path="url(#clip0)">
<path d="M35.98 25.5101C34.7214 25.5172 33.6316 25.8195 32.7175 26.2696C32.38 25.6016 32.0425 25.0179 31.9863 24.5821C31.923 24.0758 31.8457 23.7664 31.923 23.1618C32.0003 22.557 32.3519 21.6992 32.3519 21.6289C32.3448 21.5656 32.2745 21.2562 31.5503 21.2492C30.8262 21.2422 30.2003 21.3898 30.13 21.5797C30.0597 21.7695 29.9191 22.2054 29.8277 22.6554C29.7011 23.3164 28.3792 25.6578 27.6269 26.8883C27.3808 26.4101 27.1699 25.9883 27.1276 25.6507C27.0644 25.1445 26.987 24.8351 27.0644 24.2304C27.1417 23.6257 27.4933 22.7679 27.4933 22.6976C27.4863 22.6344 27.4159 22.325 26.6918 22.3179C25.9675 22.3109 25.3418 22.4586 25.2715 22.6484C25.2012 22.8383 25.1238 23.2883 24.9691 23.7242C24.8214 24.1601 23.0636 28.0695 22.6066 29.089C22.3745 29.6094 22.1707 30.0242 22.023 30.3054C21.8753 30.5867 22.0159 30.3265 22.0019 30.3547C21.8753 30.5937 21.805 30.7273 21.805 30.7273V30.7344C21.7066 30.9102 21.6011 31.0789 21.5518 31.0789C21.5167 31.0789 21.4463 30.6078 21.5659 29.961C21.826 28.6039 22.4588 26.4875 22.4519 26.4102C22.4519 26.375 22.5713 26.0023 22.044 25.8125C21.5307 25.6227 21.348 25.9391 21.3057 25.9391C21.2635 25.9391 21.2284 26.0516 21.2284 26.0516C21.2284 26.0516 21.7979 23.6681 20.1385 23.6681C19.0979 23.6681 17.6635 24.8001 16.9534 25.8337C16.5034 26.0798 15.5471 26.6 14.5346 27.1556C14.1479 27.3665 13.7471 27.5915 13.3674 27.7954L13.2902 27.7109C11.2792 25.5664 7.5597 24.0476 7.71438 21.1648C7.77063 20.1172 8.13626 17.3539 14.8582 14.007C20.3637 11.2648 24.7723 12.0172 25.5386 13.6906C26.6284 16.0812 23.1831 20.525 17.4598 21.1648C15.2801 21.4109 14.1339 20.5672 13.8457 20.2508C13.5434 19.9203 13.5012 19.9062 13.3887 19.9695C13.2059 20.0679 13.3184 20.3633 13.3887 20.539C13.5574 20.982 14.2605 21.7695 15.4559 22.1633C16.5034 22.5078 19.0629 22.6976 22.1566 21.5023C25.623 20.1594 28.3301 16.4328 27.5355 13.3179C26.727 10.1469 21.4676 9.10623 16.4965 10.8711C13.5363 11.9258 10.33 13.5711 8.02376 15.7297C5.28157 18.289 4.84563 20.525 5.02845 21.4531C5.66836 24.7648 10.2316 26.9234 12.0597 28.5195C11.9683 28.5687 11.8839 28.6179 11.8066 28.6601C10.8925 29.1101 7.41204 30.9312 6.54016 32.8577C5.55579 35.0374 6.69485 36.6054 7.45423 36.8164C9.80266 37.4703 12.2074 36.2961 13.5081 34.3625C14.8018 32.4289 14.6472 29.9187 14.0495 28.7726L14.0284 28.7304L14.7456 28.3086C15.2097 28.0344 15.6667 27.7812 16.0674 27.5632C15.8425 28.1749 15.6807 28.8991 15.5964 29.9538C15.498 31.1914 16.0042 32.7944 16.6722 33.4273C16.9675 33.7014 17.3191 33.7085 17.537 33.7085C18.3105 33.7085 18.662 33.0686 19.0488 32.3023C19.5269 31.3671 19.9488 30.2843 19.9488 30.2843C19.9488 30.2843 19.4214 33.2163 20.8628 33.2163C21.3902 33.2163 21.9175 32.5343 22.1566 32.1827V32.1898C22.1566 32.1898 22.1706 32.1687 22.1988 32.1194C22.2283 32.0758 22.2564 32.0313 22.2831 31.9859V31.9719C22.4941 31.6062 22.9652 30.7695 23.6683 29.3844C24.5753 27.5984 25.4472 25.3625 25.4472 25.3625C25.4472 25.3625 25.5316 25.9109 25.7917 26.8109C25.9463 27.3454 26.2838 27.9289 26.544 28.4984C26.3331 28.7937 26.2065 28.9625 26.2065 28.9625L26.2135 28.9696C26.0449 29.1946 25.8549 29.4337 25.6581 29.6727C24.9409 30.5305 24.0831 31.5079 23.9706 31.7892C23.837 32.1196 23.8652 32.3657 24.1253 32.5626C24.3152 32.7032 24.6527 32.7313 25.0113 32.7032C25.6581 32.661 26.1081 32.4993 26.3331 32.4008C26.6847 32.2743 27.0855 32.0844 27.4722 31.8032C28.1753 31.2829 28.6042 30.5446 28.562 29.5603C28.5409 29.0189 28.3652 28.4845 28.1472 27.9782C28.2105 27.8868 28.2738 27.7954 28.337 27.697C29.448 26.0727 30.3058 24.2868 30.3058 24.2868C30.3058 24.2868 30.3902 24.8353 30.6503 25.7353C30.7838 26.1923 31.0511 26.6916 31.2902 27.1838C30.2495 28.0346 29.5956 29.0189 29.3706 29.6658C28.9558 30.8611 29.2792 31.4025 29.8909 31.5291C30.1651 31.5853 30.5589 31.4588 30.8542 31.3322C31.2198 31.2127 31.6628 31.0087 32.0706 30.7064C32.7738 30.1861 33.4488 29.4619 33.4136 28.4846C33.3925 28.0346 33.273 27.5916 33.1113 27.1697C33.9972 26.8041 35.1432 26.5932 36.5988 26.7689C39.7277 27.1346 40.3464 29.0893 40.227 29.9049C40.1074 30.7206 39.4535 31.1705 39.2355 31.3111C39.0175 31.4447 38.9472 31.494 38.9683 31.5924C38.9964 31.7401 39.0949 31.733 39.2847 31.7049C39.5449 31.6627 40.93 31.037 40.9863 29.5324C41.0706 27.5985 39.2355 25.4891 35.98 25.5101V25.5101ZM11.8488 33.6453C10.8152 34.7773 9.3597 35.2062 8.74095 34.8406C8.07298 34.4539 8.33306 32.7875 9.60579 31.5851C10.3792 30.8539 11.3847 30.1789 12.0456 29.764C12.1933 29.6726 12.4183 29.5391 12.6855 29.3773C12.7277 29.3493 12.7558 29.3351 12.7558 29.3351C12.805 29.307 12.8613 29.2719 12.9175 29.2367C13.3886 30.9523 12.9386 32.457 11.8488 33.6453V33.6453ZM19.4074 28.5054C19.0488 29.3844 18.2894 31.6414 17.8324 31.5148C17.4385 31.4094 17.1995 29.7008 17.7549 28.0133C18.0362 27.1624 18.6338 26.15 18.9854 25.7562C19.555 25.1233 20.1737 24.9124 20.3284 25.1726C20.5113 25.5101 19.6324 27.957 19.4074 28.5054ZM25.6441 31.4867C25.4894 31.5641 25.3488 31.6203 25.2855 31.5782C25.2363 31.55 25.3487 31.4446 25.3487 31.4446C25.3487 31.4446 26.1292 30.6079 26.4385 30.2211C26.6143 29.9962 26.8253 29.7361 27.0503 29.4407V29.525C27.0503 30.5375 26.08 31.2125 25.6441 31.4867ZM30.4534 30.3898C30.3409 30.3054 30.355 30.0453 30.7346 29.2297C30.8824 28.9062 31.2198 28.3648 31.8034 27.8515C31.8737 28.0625 31.9159 28.2663 31.9088 28.4562C31.9019 29.7219 31.0019 30.1929 30.4534 30.3898Z" fill="white"/>
</g>
<defs>
<clipPath id="clip0">
<rect width="36" height="27" fill="white" transform="translate(5 10)"/>
</clipPath>
</defs>
</svg>
