<svg width="47" height="47" viewBox="0 0 47 47" fill="none" xmlns="http://www.w3.org/2000/svg">
<path d="M42.3 0H4.7C2.10427 0 0 2.10427 0 4.7V42.3C0 44.8957 2.10427 47 4.7 47H42.3C44.8957 47 47 44.8957 47 42.3V4.7C47 2.10427 44.8957 0 42.3 0Z" fill="white"/>
<path fill-rule="evenodd" clip-rule="evenodd" d="M4.7 0C2.10427 0 0 2.10427 0 4.7V42.3C0 44.8957 2.10427 47 4.7 47H42.3C44.8957 47 47 44.8957 47 42.3V4.7C47 2.10427 44.8957 0 42.3 0H4.7ZM32.3675 20.089C32.7642 20.0902 33.2148 20.1112 33.5539 20.148C34.9344 20.2973 36.0096 20.893 36.9243 22.0149C37.3799 22.5737 37.5357 22.8183 37.5024 22.9228C37.4811 22.9903 37.1685 23.2142 36.1749 23.8738C35.1988 24.5218 34.8843 24.7159 34.8113 24.7159C34.7372 24.7159 34.5831 24.5572 34.3607 24.2524C33.9324 23.6655 33.4952 23.3976 32.8193 23.3083C32.0924 23.2121 31.4405 23.4412 31.1211 23.9053C30.8482 24.3018 30.807 24.9399 31.0239 25.4035C31.2752 25.9405 31.7302 26.2374 33.4737 27.002C35.4845 27.8836 36.5035 28.4872 37.2456 29.2361C38.0448 30.0427 38.4498 30.9739 38.5741 32.2912C38.6348 32.9332 38.5607 33.6941 38.3769 34.3128C37.9264 35.8294 36.7105 36.94 34.9282 37.4627C34.4356 37.6071 33.9771 37.6934 33.5237 37.7266C32.8316 37.7776 31.8406 37.7495 31.2443 37.6626C29.7354 37.4429 28.0322 36.5649 27.1828 35.5693C26.7659 35.0806 26.2337 34.2764 26.2337 34.1349C26.2337 34.0666 26.2675 34.0279 26.4016 33.9426C26.7991 33.6901 29.0772 32.3878 29.1214 32.3878C29.1481 32.3878 29.2671 32.528 29.3857 32.6994C29.6545 33.0874 30.3153 33.7544 30.6512 33.977C30.9257 34.1587 31.2766 34.3046 31.6932 34.4099C31.9319 34.4694 32.0582 34.48 32.5789 34.48C33.1108 34.4799 33.22 34.4709 33.458 34.4069C34.0875 34.2375 34.5788 33.887 34.787 33.4587C34.8783 33.2737 34.8801 33.2506 34.8801 32.8019V32.3366L34.7682 32.1146C34.4972 31.5767 33.9133 31.2075 32.0672 30.4079C31.2192 30.0405 30.1806 29.5226 29.7751 29.2649C28.8497 28.6769 28.2084 28.0046 27.7874 27.1816C27.3688 26.3632 27.3063 26.0586 27.3053 24.828C27.3043 23.8647 27.3027 23.8766 27.5021 23.2617C27.6831 22.7038 28.0535 22.0805 28.4624 21.6459C29.2786 20.7784 30.4709 20.2209 31.7475 20.11C31.9107 20.0945 32.1296 20.0883 32.3675 20.089ZM21.3827 20.2793C23.8414 20.2805 25.2511 20.2891 25.2738 20.3032C25.3164 20.3297 25.3217 20.5436 25.3217 21.9091V23.4846L20.415 23.5024V30.468C20.415 34.2992 20.4073 37.4565 20.3966 37.4844C20.3793 37.5312 20.1906 37.5349 18.5943 37.5349H16.8114L16.793 37.4628C16.7811 37.4232 16.7724 34.2659 16.7721 30.4464L16.7716 23.5021L11.865 23.4844V21.9277C11.865 20.6929 11.8735 20.3623 11.9063 20.3294C11.9401 20.2946 13.1921 20.2856 18.587 20.2803C19.6272 20.2793 20.5632 20.2788 21.3827 20.2793Z" fill="#0288D1"/>
</svg>
